<?xml version="1.0" encoding="UTF-8" standalone="no"?>
<!-- Created with Inkscape (http://www.inkscape.org/) -->

<svg
   xmlns:dc="http://purl.org/dc/elements/1.1/"
   xmlns:cc="http://creativecommons.org/ns#"
   xmlns:rdf="http://www.w3.org/1999/02/22-rdf-syntax-ns#"
   xmlns:svg="http://www.w3.org/2000/svg"
   xmlns="http://www.w3.org/2000/svg"
   xmlns:sodipodi="http://sodipodi.sourceforge.net/DTD/sodipodi-0.dtd"
   xmlns:inkscape="http://www.inkscape.org/namespaces/inkscape"
   id="svg4136"
   version="1.1"
   inkscape:version="0.91 r13725"
   xml:space="preserve"
   width="354.29999"
   height="397.79999"
   viewBox="0 0 354.29999 397.79999"
   sodipodi:docname="logo.svg"><metadata
     id="metadata4142"><rdf:RDF><cc:Work
         rdf:about=""><dc:format>image/svg+xml</dc:format><dc:type
           rdf:resource="http://purl.org/dc/dcmitype/StillImage" /><dc:title /></cc:Work></rdf:RDF></metadata><defs
     id="defs4140"><clipPath
       clipPathUnits="userSpaceOnUse"
       id="clipPath4150"><path
         d="m 0,318.24 283.44,0 L 283.44,0 0,0 0,318.24 Z"
         id="path4152"
         inkscape:connector-curvature="0" /></clipPath><clipPath
       clipPathUnits="userSpaceOnUse"
       id="clipPath4158"><path
         d="m 59.2739,309.696 211.5491,0 0,-299.94112 -211.5491,0 0,299.94112 z"
         id="path4160"
         inkscape:connector-curvature="0" /></clipPath><clipPath
       clipPathUnits="userSpaceOnUse"
       id="clipPath4270"><path
         d="m 22.2603,270.295 70.1757,0 0,-250.0948 -70.1757,0 0,250.0948 z"
         id="path4272"
         inkscape:connector-curvature="0" /></clipPath></defs><sodipodi:namedview
     pagecolor="#ffffff"
     bordercolor="#666666"
     borderopacity="1"
     objecttolerance="10"
     gridtolerance="10"
     guidetolerance="10"
     inkscape:pageopacity="0"
     inkscape:pageshadow="2"
     inkscape:window-width="1920"
     inkscape:window-height="1017"
     id="namedview4138"
     showgrid="false"
     inkscape:zoom="1.3474108"
     inkscape:cx="22.172591"
     inkscape:cy="137.81902"
     inkscape:window-x="0"
     inkscape:window-y="0"
     inkscape:window-maximized="1"
     inkscape:current-layer="g4144" /><g
     id="g4144"
     inkscape:groupmode="layer"
     inkscape:label="tamburin (1)"
     transform="matrix(1.25,0,0,-1.25,0,397.8)"><path
       style="fill:#000000;fill-opacity:1;fill-rule:nonzero;stroke:none"
       d="m 57.192603,309.07837 c -1.96625,0.0387 -3.71875,-1.08094 -3.41875,-3.88594 -0.95,-0.49 -1.58063,-1.29969 -2.64063,-1.67969 -3.36,1.27 -7.49937,-0.34031 -8.15937,-3.12031 -0.82,-3.44 2.06968,-4.46062 4.07968,-6.24062 0.33,-4.78 -3.30093,-3.97969 -3.36093,-7.67969 -0.04,-2.57 2.33031,-5.07031 5.52031,-5.52031 0.81,-0.11 1.77062,0.26 2.64062,0 1.83,-0.55 3.67969,-2.93907 5.27969,-3.83907 -1.12,-5.35 3.080307,-6.68062 6.720307,-6.24062 1.77,0.22 2.75032,2.03 4.32032,2.4 2.93,0.7 6.08906,-0.73938 8.63906,1.24062 -2.55,-0.25 -6.51969,-0.23968 -8.87969,0.92032 -1.98,-1.31 -4.79,-2.54032 -6.65,-0.87032 -0.4,0.4 -2.020307,2.19907 -1.27031,3.98907 -2.809997,1.35 -4.980307,3.34093 -6.720307,5.76093 -4.8,-2.29 -9.1,4.20938 -3.6,5.75938 -0.3,1.56 -0.17969,5.82031 -0.17969,5.82031 0,0 -2.75031,1.37031 -2.37031,3.62031 0.5,3.02 4.25,1 4.25,1 0,0 2.39,3.61 4.5,3.75 -0.18,4.15 3.6,2.81 5.999997,1.75 -0.555,1.83 -2.733747,3.02688 -4.699997,3.06563 z m 3.020307,-3.88594 c -2.569997,0 -5.859057,-2.03031 -7.439057,-4.32031 -4,-5.79 -0.79032,-12.50931 2.87968,-16.32031 2.87,-2.98 9.780627,-6.98938 14.640637,-8.15938 6.1,-1.469 9.68874,1.09006 12.71874,2.63906 0.55,-3.83 -5.76875,-2.45906 -5.61874,-5.88906 1.12999,-0.92 3.33936,0.74994 4.65936,0.61094 1.96,-0.21 3.93063,-1.97125 6.24063,-1.68125 0.56,-8.76 -0.8,-16.72069 0,-24.47969 0.23,-2.21 1.03968,-4.37031 1.67968,-6.72031 0.69,-2.509 0.56938,-5.19969 0.95938,-7.67969 0.77,-4.891 2.50094,-8.95037 3.36094,-12.95937 2.46,-3.991 2.82,-9.39063 2.4,-14.64063 -0.15001,-1.891 -0.13125,-4.29062 -0.48125,-6.24062 -0.59,-3.27 -3.89875,-6.07869 -4.31875,-8.87969 -0.54001,-3.62 2.00968,-5.85 2.87968,-8.4 0.34,-1 0.16969,-1.95031 0.47969,-3.12031 1.11,-4.17 3.22031,-8.34969 5.52031,-12.47969 3.25,-5.819 5.61907,-11.47837 9.83907,-15.35937 1.17,-5.35 -2.02876,-10.68132 -3.11875,-16.32032 -1.09001,-5.611 -2.04125,-9.54937 -4.08125,-14.15937 -2.77,-6.26 -7.41907,-11.12125 -11.03907,-16.08125 -1.35,-1.849 -2.28,-3.93975 -3.6,-5.518752 -1.46,-1.75 -2.91093,-2.06038 -4.56093,-3.35938 -1.19,-0.93 -1.89969,-2.12162 -2.87969,-2.64062 -2.39,-1.261 -5.31,-0.93125 -7.2,-2.88125 0.27,-2.21 1.92095,-3.03913 2.16095,-5.27813 3.41998,0.54 5.05936,-0.70125 5.75936,-2.88126 -1.46,-0.601 -2.19031,-3.569 -1.92031,-4.8 0.64,-2.909 3.53969,-1.83062 6.47969,-2.64062 1.78,-0.49 3.87124,-3.258437 5.28125,-3.598437 -0.56,-1.04 -0.0806,-3.119936 -0.24063,-4.560936 2.49,-2.549 7.36969,-1.329688 11.27969,-2.879688 1.26,-0.5 1.97031,-1.790936 3.12031,-2.160936 5.09,-1.639 6.86969,2.000312 10.07969,3.120312 1.67,-1.479 5.06969,-1.860688 7.67969,-1.679688 -1.07,-5.771 -2.32,-10.070936 -3.6,-15.360936 -1.71,-7.049 -4.33,-12.320064 -3.6,-21.839064 0.26,-3.321 2.03,-15.7093123 4.8,-16.3203123 7.46,-1.63 3.06031,12.1296883 4.32031,16.0796883 1.57,4.941 5.37993,4.891936 8.16094,8.160936 0.6,5.071 -3.69125,6.289064 -4.08125,9.839064 -0.23,2.111 1.56062,4.151 2.64062,6 3.38,5.79 6.28031,11.829624 7.92031,18.240624 0,1.04 -0.0799,2.160688 0.23907,2.879688 4.781,-1.41 7.20931,2.230685 10.32031,2.879685 2.66,0.561 5.28969,-0.399 8.87969,0 5.589,3.62 8.83,9.58001 8.4,19.20001 5.399,-0.519 5.46093,4.30025 8.16093,6.48125 1.83,-0.471 1.68907,-2.98963 3.83907,-3.84063 2.22,-0.88 7.45031,-0.72875 9.12031,0.48125 0.72,0.519 2.63037,3.939 3.35937,6.000002 0.931,2.629 0.0703,5.72907 0.72032,8.63907 1.11,0.75 1.62031,-0.84969 3.12031,-0.47969 2.011,0.66 1.65031,3.09062 1.92031,5.04062 0.11,0.83 0.57869,1.53944 0.47969,2.39844 -0.18,1.59 -1.97,2.78994 -1.2,4.56094 -0.88,1.87 -4.009,3.38062 -1.2,5.04062 1.821,-3.011 7.01062,-3.12056 7.44062,1.19844 1.599,0 3.53031,0.60031 4.32032,1.92031 0.37999,0.64 0.0687,1.57025 0.47968,2.88125 0.35,1.12 1.18,1.80907 1.2,2.63907 0.03,1.31 -0.92093,2.12931 -0.96093,3.12031 2.73,-0.55 5.24062,5.79069 5.04062,7.67969 -0.271,2.54 -3.89062,3.571 -3.84062,6 2.53,1.861 5.93,3.83937 4.8,8.15937 -0.39,1.5 -2.58994,2.37069 -3.36094,4.07969 -0.62,1.38 -0.25844,2.70194 -1.19844,3.36094 -0.95,0.67 -2.69,0.26031 -3.6,0.72031 -0.031,2.609 -1.25994,4.02037 -2.16094,5.75937 -2.529,1.48 -4.09937,-1.08093 -5.75937,-0.96093 -0.781,1.431 0.92969,1.99162 1.67969,2.64062 9.67,8.38 19.64062,16.12938 32.64063,21.35938 4.87,1.96 10.02906,3.21118 13.43906,6.24218 1.431,1.27 2.83094,3.30882 4.56094,5.75782 2.189,3.111 5.39931,7.971 0.72031,9.6 -8.2,0.931 -10.32162,-3.79869 -14.64062,-6.47969 -2.81,-1.74 -5.59969,-2.50869 -8.8797,-4.07969 -1.48,-1.56 -2.34037,-3.73937 -3.35937,-5.75937 -4.61,-1.48 -9.64057,-2.55069 -14.40157,-4.07969 -4.83,-1.551 -9.33037,-2.96063 -12.95937,-5.04063 -0.541,2.979 2.70031,4.79007 3.12031,7.43907 0.78,4.9 -1.01,7.99993 -6,8.16093 -0.6,1.5 -0.74994,2.94 -2.16094,3.6 -3.319,1.559 -7.33844,-0.17931 -9.59843,-1.92031 -1.21001,0.23 -1.96001,0.92031 -3.6,0.72031 -1.98001,-1.911 -1.10088,-4.70037 -1.92188,-6.95937 -0.96,-2.661 -4.56906,-4.69063 -6.23906,-7.44063 -0.88,-1.451 -1.38031,-3.01 -1.92031,-4.8 -2.18,-0.69 -3.22007,-4.04037 -5.03907,-5.75937 -0.99,-0.931 -3.35062,-1.14094 -5.04062,-2.16094 -2.56,-1.54 -4.26006,-4.92006 -6.23906,-6.23906 -2.21001,-1.471 -5.52157,-2.07094 -8.40157,-3.36094 -3.049,-1.36 -6.48906,-2.17837 -8.63906,-3.35937 -1.32,-0.719 -2.5,-2.70063 -3.6,-2.64063 -1.03,0.06 -2.22025,1.72163 -2.88125,2.64063 -2,2.781 -2.43844,6.41906 -1.19844,9.83906 1.449,4.011 5.30032,8.94969 6.72032,12.47969 4.37999,-1.969 9.69906,-4.28007 15.83906,-5.03907 5.59,-0.691 14.46,0.96907 14.4,5.03907 -0.011,0.781 -1.53938,2.56 -2.15938,3.6 -1.38,2.33 -2.66056,5.74156 -3.60156,7.20156 -0.939,1.449 -2.68813,3.33969 -4.07812,5.27969 -2.63101,3.66 -4.47001,5.51868 -7.2,8.87968 -1.01101,1.25 -2.02125,3.15094 -2.88125,3.36094 -3.051,0.759 -5.36969,-2.971 -7.67969,-2.4 1,4.04 4.03094,6.04838 5.76094,9.35938 0.71,3.919 -0.87001,5.77006 -2.4,7.43906 -1.52101,1.661 -1.98163,2.66093 -5.04063,2.16093 -3.66,3.569 -9.34938,9.56969 -17.75937,7.67969 -2.83001,-0.639 -6.56001,-4.75031 -7.2,-7.92031 -1.87001,-0.929 -5.01001,-1.46869 -6.2,-3.07969 1.16,-2.25 0.56968,-2.42875 -0.52032,-4.11875 -0.02,-1.421 0.23969,-3.12 -0.72031,-3.6 -3.31,3.08 -3.45969,8.17813 -4.07969,13.67813 -0.58,5.131 -0.81093,10.111 -2.16093,15.6 -0.77,3.11 -2.20969,6.09131 -2.87969,9.12031 -0.79,3.581 -0.76969,7.58156 -1.67969,9.60156 -1.09,2.42 -3.88937,3.73 -4.55937,6 -0.51,1.719 -0.17032,3.68906 -0.72032,5.03906 -0.75,0.929 -2.45093,0.90969 -3.36093,1.67969 -3.49,10.111 -10.3,16.9 -24,16.8 z M 34.100413,269.67837 c -1.916,-1.553 -7.662247,-3.29019 -9.031247,-5.44219 3.323,-0.667 13.717937,-2.99019 16.460937,-4.16719 -4.076,-6.889 -7.29094,-13.68362 -10.81094,-21.19062 3.054,-0.552 5.76462,-1.41769 9.01562,-1.77969 3.507,7.422 6.145,13.50856 10.325,20.17656 3.296,-0.826 12.380747,-3.37193 15.468747,-4.23593 0.462,1.9 -3.42268,6.81131 -3.00468,8.77031 -7.939997,2.052 -20.415437,5.87075 -28.423437,7.86875 z m 0.71719,-37.43594 c -10.384217,0.076 -18.882037,-5.9375 -19.629687,-15.85 -0.268,-3.67 0.83187,-6.22319 2.32187,-8.69219 1.98,0.91 4.25656,1.49544 6.42656,2.19844 -0.605,2.051 -1.65875,4.80019 -0.79375,7.49219 2.83,-0.306 5.69069,-0.57619 8.079692,-1.26719 -0.541,-2.405 -1.52275,-4.32831 -1.893752,-6.92031 2.481002,-0.328 5.099064,-0.53994 7.414067,-1.01094 1.6,6.058 3.72856,11.53669 5.52656,17.37969 -2.556,0.331 -4.86713,0.87694 -7.40313,1.23594 -0.598995,-2.026 -1.279745,-3.95382 -2.068745,-5.78282 -2.689,0.498 -5.781192,0.61719 -8.067192,1.49219 2.844,5.258 11.909507,4.99338 19.137507,3.43438 -0.378,1.242 0.002,3.17387 -0.0125,4.74687 -3.07475,1.02397 -6.12992,1.52247 -9.0375,1.54375 z m 71.235927,-8.40937 c 0.3425,-0.0775 0.66938,-0.17156 0.98438,-0.27656 0.62953,-0.2096 1.21196,-0.46718 1.77656,-0.74219 4.2e-4,-2.1e-4 0.001,2e-4 0.002,0 0.28207,-0.13731 0.56041,-0.27959 0.8375,-0.42188 0.0775,-0.17625 0.1527,-0.37246 0.22344,-0.58593 1.7e-4,-5e-4 -1.6e-4,-0.001 0,-0.002 0.49492,-1.49437 0.7811,-3.79423 0.25625,-5.4125 -2.36964,1.46978 -3.72943,3.9499 -4.07969,7.43907 -5e-5,5.3e-4 6e-5,10e-4 0,0.002 z m 39.12031,-9.84063 c 0.18751,-0.1675 0.36404,-0.34502 0.53282,-0.53124 0.16905,-0.18648 0.32937,-0.38076 0.48125,-0.58438 0.15166,-0.20334 0.29509,-0.41398 0.43124,-0.63282 2.4e-4,-3.6e-4 -2.2e-4,-0.001 0,-0.002 1.22496,-1.96944 1.85599,-4.53401 2.47813,-7.10625 0.27656,-1.14334 0.55156,-2.28781 0.87656,-3.38281 -0.40249,-0.0725 -0.80417,-0.0861 -1.20312,-0.05 -0.39894,0.0361 -0.79578,0.12164 -1.18906,0.24531 -0.19664,0.0618 -0.39267,0.1327 -0.5875,0.21251 -0.58449,0.2394 -1.16,0.5539 -1.72344,0.9078 -0.75125,0.47188 -1.48062,1.0136 -2.17969,1.5422 -0.5544,0.41912 -1.08338,0.8149 -1.59531,1.17499 -0.13355,0.094 -0.27125,0.19957 -0.40156,0.28594 -3.4e-4,2.3e-4 -10e-4,-2.2e-4 -0.002,0 0.14751,0.3525 0.28321,0.71836 0.41094,1.09063 0.25547,0.74452 0.48297,1.51703 0.72969,2.27031 0.24657,0.75281 0.51233,1.48674 0.84375,2.15469 2.1e-4,4.1e-4 -2.1e-4,0.001 0,0.002 0.16566,0.33373 0.34874,0.6503 0.55313,0.94531 2.3e-4,3.4e-4 -2.4e-4,0.001 0,0.002 0.40937,0.59063 0.90874,1.09125 1.54374,1.45625 z m 45.55,-3.55156 c 0.17049,0.003 0.33661,-0.005 0.49375,-0.025 0.31426,-0.0402 0.59688,-0.12837 0.82657,-0.27656 0.22974,-0.14821 0.40578,-0.35562 0.50937,-0.63281 0.0518,-0.13858 0.086,-0.29402 0.0984,-0.46875 0.0126,-0.17522 0.004,-0.36856 -0.0281,-0.58282 -0.0321,-0.21353 -0.0884,-0.44662 -0.17031,-0.70156 -1.7e-4,-5.4e-4 1.8e-4,-10e-4 0,-0.002 -0.12137,0.01 -0.22519,0.0378 -0.31718,0.0766 -0.0924,0.0389 -0.17213,0.0892 -0.24376,0.14844 -0.0713,0.0588 -0.13418,0.12501 -0.19375,0.19531 -0.11893,0.14039 -0.22403,0.29543 -0.34843,0.42969 -0.0624,0.0672 -0.12923,0.13016 -0.20625,0.18281 -0.15393,0.10531 -0.34594,0.17219 -0.61094,0.16719 -0.6,0.04 -0.74,-0.37969 -1.2,-0.47969 -0.15625,-0.625 0.0816,-1.10445 0.15781,-1.50625 0.0457,-0.24112 0.0334,-0.45437 -0.15781,-0.65312 -1.2125,-0.16251 -1.94082,0.15917 -2.25781,0.89218 -0.12682,0.29321 -0.18772,0.6518 -0.1875,1.07188 4e-5,0.21004 0.0153,0.435 0.0453,0.675 0.54,0.55874 1.63563,1.10412 2.725,1.35156 0.34905,0.0793 0.69725,0.12545 1.02657,0.13438 0.0127,3.3e-4 0.0264,0.003 0.0391,0.003 z m 5.56875,-4.36875 c 5.5e-4,2e-5 0.001,-2e-5 0.002,0 -0.001,-0.16441 -0.0153,-0.34878 -0.0375,-0.54688 -7e-5,-5.6e-4 6e-5,-0.001 0,-0.002 -0.15627,-1.39167 -0.79083,-3.49792 -1.40313,-4.73125 0.04,-0.1625 0.10479,-0.31199 0.1875,-0.45312 0.0827,-0.14123 0.18383,-0.2729 0.29532,-0.4 0.22282,-0.25375 0.48808,-0.4887 0.74218,-0.72969 0.12694,-0.12039 0.25166,-0.24229 0.36563,-0.37031 4.8e-4,-5.5e-4 0.001,-10e-4 0.002,-0.002 0.22758,-0.25619 0.41571,-0.53532 0.50781,-0.86563 1.4e-4,-4.7e-4 -1.3e-4,-0.001 0,-0.002 0.0459,-0.16509 0.0681,-0.34306 0.0594,-0.53749 -3e-5,-5.5e-4 2e-5,-0.001 0,-0.002 -0.01,-0.245 -0.0631,-0.40831 -0.14844,-0.53282 -0.0427,-0.0623 -0.0931,-0.11349 -0.15,-0.16093 -0.0572,-0.0477 -0.12055,-0.0914 -0.18906,-0.13438 -0.20438,-0.12844 -0.4527,-0.25783 -0.70313,-0.52813 -0.0836,-0.09 -0.16737,-0.19574 -0.25,-0.32187 -0.0781,-0.11938 -0.15089,-0.25346 -0.22031,-0.4 -0.20828,-0.43963 -0.3813,-0.99187 -0.54687,-1.59375 -0.22077,-0.8025 -0.42726,-1.69469 -0.68282,-2.52969 -0.12778,-0.4175 -0.26792,-0.81984 -0.42812,-1.19062 -1.9e-4,-4.4e-4 1.9e-4,-0.001 0,-0.002 -0.24019,-0.55562 -0.52692,-1.038 -0.88437,-1.38594 -0.11952,-0.11643 -0.24622,-0.21753 -0.38282,-0.30157 -0.27257,-0.16768 -0.58031,-0.26687 -0.93281,-0.27812 -0.0487,0.18199 -0.0855,0.36132 -0.11094,0.53594 -7e-5,5.3e-4 8e-5,10e-4 0,0.002 -0.0254,0.17509 -0.0393,0.34544 -0.0437,0.51406 -0.009,0.33727 0.0221,0.66253 0.0828,0.97969 0.30325,1.58599 1.35313,2.96784 1.94219,4.62187 0.11774,0.33071 0.21637,0.67188 0.2875,1.02813 0.008,0.0874 0.006,0.16502 -0.005,0.23438 -0.0633,0.41672 -0.40546,0.55359 -0.46875,0.97031 -0.0105,0.0694 -0.0137,0.14687 -0.006,0.23437 0.22375,0.27625 0.38121,0.62036 0.49063,1.01094 0.0547,0.1953 0.0973,0.40274 0.13125,0.61875 0.10196,0.64803 0.12291,1.37709 0.13281,2.11719 0.0132,0.9868 0.007,1.9932 0.15,2.85 0.1253,0.74969 0.36551,1.38448 0.83125,1.79375 0.0669,0.0588 0.13753,0.11185 0.21406,0.16093 0.15193,0.0975 0.32325,0.17581 0.51719,0.23125 4.7e-4,1.4e-4 0.001,-1.3e-4 0.002,0 0.19406,0.0554 0.41028,0.0888 0.65156,0.0969 z m -4.79843,-0.72031 c 0.6845,-0.79 0.57143,-1.73469 0.31406,-2.72969 -0.19303,-0.74625 -0.46754,-1.51993 -0.54843,-2.27813 -0.0135,-0.12636 -0.022,-0.25286 -0.0234,-0.37812 -0.001,-0.12522 0.004,-0.24975 0.0172,-0.37344 -0.61912,0.16125 -1.16183,0.39877 -1.57969,0.76094 -0.27857,0.24145 -0.50173,0.53762 -0.65469,0.90469 -0.0763,0.18309 -0.13536,0.38491 -0.17499,0.60469 -9e-5,4.7e-4 8e-5,0.001 0,0.002 -0.0396,0.22039 -0.0602,0.45943 -0.0594,0.72031 8e-4,0.26088 0.0223,0.54344 0.0672,0.84844 0.4375,-0.0575 0.79311,-0.0325 1.08594,0.0547 0.29283,0.0872 0.52431,0.23624 0.71562,0.425 0.0954,0.0941 0.1812,0.19806 0.25938,0.30937 2.5e-4,3.6e-4 -2.5e-4,0.001 0,0.002 0.23511,0.33504 0.40462,0.73438 0.58125,1.12813 z M 9.8441659,203.07368 c -1.629,-7.752 -3.33957,-15.43356 -4.02657,-24.22656 2.481,-0.111 4.9611901,-0.22337 7.4421901,-0.33437 0.764,4.852 1.3935,9.83406 2.2375,14.58906 1.778,-2.133 3.30175,-4.481 4.89375,-6.775 2.573,1.523 4.94869,4.524 7.25469,5.55 -0.747,-4.468 -1.52831,-8.88688 -1.97031,-13.69688 l 7.667184,-0.34531 c 0.747,8.018 2.328313,15.12337 3.720313,22.43437 -2.861001,-0.173 -5.108875,1.133 -7.196875,0.775 -2.914002,-0.509 -5.493122,-5.31893 -8.178122,-5.96093 -1.376,2.491 -3.22288,4.55169 -4.42188,7.20469 -2.396,0.334 -4.87887,0.58693 -7.4218701,0.78593 z M 196.05353,172.95181 c 0.285,-0.045 0.44825,-0.21082 0.55782,-0.43126 0.10956,-0.22037 0.16578,-0.49504 0.23281,-0.7578 0.0447,-0.17518 0.0937,-0.34432 0.16875,-0.48907 2.1e-4,-4.1e-4 -2.1e-4,-0.001 0,-0.002 -0.5875,-0.1625 -1.26895,-0.62471 -1.88281,-0.86875 -0.36832,-0.14642 -0.71188,-0.21438 -0.99688,-0.0906 0.11637,0.45421 0.30251,0.83784 0.53281,1.17812 0.0764,0.11302 0.15869,0.22061 0.24376,0.325 2.4e-4,3e-4 -2.5e-4,0.001 0,0.002 0.17068,0.20938 0.35664,0.40247 0.55,0.58907 0.19328,0.18671 0.39374,0.36531 0.59374,0.54531 z M 7.0207259,170.4315 c -0.47,-8.37 -0.66388,-16.469 -0.17188,-23.95 8.2970001,1.059 22.3967501,-1.966 23.5437541,5.95 0.942,6.501 -7.017314,7.48969 -10.820314,10.65468 -1.65,-0.877 -3.83775,-2.42643 -5.31875,-2.69843 0.225,1.647 -0.11562,3.92156 0.45938,5.17656 4.192,-0.17 8.29343,-0.24032 12.19843,-0.0953 -0.22,1.168 -1.55212,3.19488 -2.27812,4.62188 -5.942,0.201 -11.8765,0.37463 -17.6125001,0.34063 z M 203.73322,170.07212 c 0.0288,-0.19125 0.0654,-0.37393 0.10937,-0.55 0.30731,-1.23133 0.94463,-2.13433 1.32969,-3.2875 1.6e-4,-4.7e-4 -1.6e-4,-0.001 0,-0.002 -0.365,0.215 -0.77915,0.38 -1.22812,0.51093 -0.44897,0.13094 -0.93169,0.22751 -1.43281,0.30625 -0.50113,0.0788 -1.02072,0.14 -1.5422,0.19844 -0.52156,0.0583 -1.04624,0.11307 -1.55624,0.18282 0.01,0.0703 0.0121,0.13315 0.006,0.18749 -0.0176,0.16209 -0.10369,0.256 -0.24531,0.29376 -4.9e-4,1.2e-4 -0.001,-1.4e-4 -0.002,0 -0.0211,0.285 0.0176,0.53001 0.10156,0.74062 0.58773,1.47424 3.454,1.27 4.45938,1.41875 z m 4.32031,-5.52031 c 0.285,-0.375 0.42293,-0.89563 0.46562,-1.5125 0.0142,-0.20568 0.0193,-0.42163 0.0141,-0.64688 -3.9e-4,-2.1e-4 -0.001,2.1e-4 -0.002,0 -0.35563,-0.19375 -0.60995,-0.48857 -1.00469,-0.64375 -0.0786,-0.0308 -0.16314,-0.0572 -0.25469,-0.075 -0.0921,-0.0179 -0.19244,-0.0273 -0.30156,-0.0281 -0.10912,-8.7e-4 -0.22781,0.007 -0.35781,0.0266 9e-5,5.5e-4 -9e-5,0.001 0,0.002 0.0201,0.12 0.0332,0.23176 0.0391,0.33751 0.023,0.42304 -0.0687,0.73132 -0.2875,0.91249 -0.10941,0.0906 -0.2509,0.14911 -0.425,0.175 -0.0871,0.013 -0.18219,0.0178 -0.28594,0.0141 0.48511,0.15476 1.01062,0.27044 1.45157,0.46875 0.44125,0.19874 0.79843,0.48031 0.94843,0.97031 z M 14.222286,159.71119 c 0.39425,-0.34251 1.13486,-0.77502 2.02188,-1.26407 0.88701,-0.48905 1.91987,-1.03437 2.89843,-1.60157 0.48971,-0.28381 0.96583,-0.57352 1.40313,-0.86405 0.21847,-0.14515 0.42589,-0.28915 0.62187,-0.43438 0.98084,-0.72655 1.64003,-1.44713 1.5875,-2.09531 -0.0129,-0.16831 -0.045,-0.3205 -0.0953,-0.45938 -0.0504,-0.13924 -0.11868,-0.26415 -0.20312,-0.37656 -0.33666,-0.4482 -0.92987,-0.69483 -1.66719,-0.82656 -0.3689,-0.0659 -0.773,-0.10376 -1.2,-0.12344 -0.42647,-0.0197 -0.87645,-0.0217 -1.33281,-0.0172 -0.008,8e-5 -0.0157,-8e-5 -0.0234,0 -0.9067,0.009 -1.84398,0.0447 -2.70156,0.0187 -0.43191,-0.013 -0.84427,-0.0421 -1.22188,-0.0969 -4.8e-4,-6e-5 -0.001,8e-5 -0.002,0 -0.029,1.34351 -0.0226,2.71651 -0.0234,4.08438 -10e-4,1.36775 -0.009,2.73075 -0.0625,4.05626 z m 196.710934,-0.43751 c 1.8e-4,-5.2e-4 -1.8e-4,-0.001 0,-0.002 0.0446,-0.12949 0.0751,-0.25157 0.0906,-0.36719 0.23578,-1.74246 -2.65766,-1.99961 -3.21093,-3.47187 -0.19725,0.22197 -0.40649,0.43191 -0.60781,0.65 -2.7e-4,2.9e-4 2.6e-4,0.001 0,0.002 -0.10052,0.10891 -0.19957,0.21911 -0.29375,0.33437 -2.7e-4,3.2e-4 2.6e-4,0.001 0,0.002 -0.04,0.0489 -0.0759,0.10245 -0.11407,0.15313 -0.14229,0.18888 -0.27417,0.38681 -0.37969,0.6125 -0.20074,0.42938 -0.31812,0.9425 -0.28437,1.60625 1.17,0.36 2.62609,-0.18 3.775,0 5e-4,8e-5 0.001,-8e-5 0.002,0 0.28664,0.0451 0.55473,0.13528 0.79374,0.29532 0.0798,0.0534 0.15657,0.11593 0.22969,0.18593 z m -3.84063,-8.16093 c 1.21876,-0.66563 2.19192,-3.31769 1.58282,-4.7672 -0.0406,-0.0966 -0.0871,-0.18843 -0.14219,-0.27343 -5.5e-4,-5e-5 -0.001,5e-5 -0.002,0 -0.13435,-0.0122 -0.26341,-0.007 -0.38594,0.0125 -1.35326,0.21929 -1.97883,2.28685 -1.70937,3.76562 0.049,0.26887 0.12837,0.51749 0.23749,0.73282 0.10913,0.21533 0.24751,0.39718 0.41875,0.52969 z m 3.03751,-6.68907 c 0.10366,-0.003 0.21156,-0.0125 0.32343,-0.0312 0.23213,-0.5025 0.2715,-1.07578 0.13594,-1.57968 -0.0905,-0.33634 -0.2586,-0.6399 -0.5,-0.87344 -0.24082,-0.23299 -0.55361,-0.39537 -0.93437,-0.44376 -0.0948,-0.0121 -0.19535,-0.0182 -0.29844,-0.0156 -0.10367,0.003 -0.21156,0.0141 -0.32344,0.0328 -0.0774,0.16749 -0.13351,0.34234 -0.16875,0.52031 -0.0654,0.33036 -0.0532,0.66712 0.0203,0.98281 0.006,0.0245 0.004,0.0508 0.0109,0.075 1.3e-4,4.8e-4 -1.3e-4,10e-4 0,0.002 0.11286,0.41952 0.34808,0.79072 0.69375,1.03438 0.0258,0.0182 0.0557,0.0317 0.0828,0.0484 0.1183,0.0732 0.24439,0.13636 0.38594,0.17813 0.17356,0.0512 0.36453,0.0757 0.57188,0.0703 z m -179.1875,-4.9 c -2.563004,-0.025 -4.811434,-0.40518 -7.473434,-0.34218 -1.192,-3.27 -2.15013,-6.78782 -3.60313,-9.78282 -1.974,1.539 -3.52831,8.23025 -5.92031,9.08125 -1.825,0.657 -4.5772501,-0.66106 -7.0312501,-0.58906 2.251,-3.349 5.2558101,-8.55112 7.8078101,-12.32812 0.935,-1.389 2.58738,-2.7722 2.75938,-3.9672 0.535,-3.601 -2.98263,-4.78018 -5.26563,-6.54218 1.6,-1.286 2.40419,-3.28056 4.09219,-4.47656 11.349,2.569 9.92637,19.11187 14.634374,28.94687 z m 174.70937,-0.41093 c 5.7e-4,0 0.001,-1e-5 0.002,0 0.10071,0.001 0.19238,-0.007 0.27657,-0.0219 4.7e-4,-8e-5 0.001,8e-5 0.002,0 0.084,-0.0153 0.1608,-0.0382 0.23125,-0.0672 0.28418,-0.11634 0.46878,-0.33201 0.65,-0.55156 0.0905,-0.10961 0.181,-0.22031 0.28125,-0.32031 0.01,-0.26988 0.005,-0.52659 -0.009,-0.77188 -0.044,-0.73585 -0.18782,-1.36959 -0.37344,-1.96406 -1.5e-4,-4.7e-4 1.4e-4,-0.001 0,-0.002 -0.12365,-0.3958 -0.2658,-0.77413 -0.40782,-1.15156 -0.14218,-0.3779 -0.28438,-0.755 -0.40937,-1.15 -5.3e-4,9e-5 -0.001,-1.1e-4 -0.002,0 -0.11442,0.0217 -0.22506,0.0349 -0.33124,0.0406 -1.59935,0.0859 -2.30329,-1.53001 -3.26719,-1.24062 -5.1e-4,1.5e-4 -0.001,-1.6e-4 -0.002,0 -0.007,0.16993 -0.004,0.33887 0.008,0.50468 0.035,0.49792 0.14997,0.97692 0.31874,1.44376 0.11234,0.31096 0.24835,0.61511 0.40157,0.91562 0.15324,0.30051 0.32375,0.59628 0.50312,0.88906 0.53803,0.87825 1.15994,1.72885 1.66719,2.58594 0.16908,0.2857 0.32481,0.57218 0.46094,0.86094 z m -6.34218,-7.90782 c 0.17218,0.0114 0.36536,0.008 0.5828,-0.0125 5.9e-4,-5e-5 9.9e-4,6e-5 0.002,0 0.23625,-0.31837 0.61129,-0.72284 0.92031,-1.17188 0.25752,-0.37419 0.46784,-0.77968 0.51406,-1.19218 0.009,-0.0825 0.0127,-0.16554 0.008,-0.24844 -0.005,-0.0829 -0.0181,-0.16554 -0.0391,-0.24843 -0.021,-0.0834 -0.0498,-0.16542 -0.0891,-0.24844 -0.0779,-0.16504 -0.19343,-0.32938 -0.35469,-0.49063 -0.48,-0.0275 -0.9982,0.20438 -1.45,0.5625 -1.24244,0.98485 -1.98782,2.92421 -0.0937,3.05 z m -4.49064,-0.17343 c 0.27949,0.005 0.54658,-0.0882 0.77657,-0.30313 0.077,-0.0718 0.1494,-0.15582 0.21719,-0.25625 -0.25425,-1.095 -1.02176,-2.31953 -2.13594,-2.54688 -0.0924,-0.0188 -0.18734,-0.0314 -0.28438,-0.0359 -0.19557,-0.009 -0.40063,0.0131 -0.61406,0.0703 -0.10646,0.0285 -0.21438,0.0656 -0.325,0.1125 -0.0227,0.46025 0.10811,0.94027 0.33438,1.37656 0.11331,0.21849 0.25099,0.42556 0.40468,0.61407 0.46015,0.56434 1.0679,0.95949 1.62656,0.96875 z m -2.58593,-8.46095 c 0.45442,0.002 0.85262,-0.17294 1.18437,-0.47187 0.11093,-0.0999 0.21367,-0.21216 0.30938,-0.33749 0.0955,-0.12499 0.18447,-0.26157 0.26406,-0.40782 0.15914,-0.29249 0.28538,-0.62345 0.37656,-0.97656 0.0456,-0.17656 0.0819,-0.35814 0.10938,-0.54375 8e-5,-5.1e-4 -7e-5,-0.001 0,-0.002 0.0274,-0.18512 0.0461,-0.37401 0.0547,-0.56407 2e-5,-5.2e-4 -3e-5,-0.001 0,-0.002 0.0257,-0.57125 -0.035,-1.15571 -0.19219,-1.69844 -0.1048,-0.36215 -0.25168,-0.70688 -0.44531,-1.01562 0.0188,-0.13113 0.0582,-0.2403 0.11563,-0.33282 0.11484,-0.18515 0.29671,-0.30328 0.50156,-0.39844 0.20484,-0.0951 0.43359,-0.16641 0.64218,-0.2578 0.2086,-0.0914 0.39734,-0.20266 0.52344,-0.37657 0.063,-0.0869 0.10969,-0.18887 0.13594,-0.3125 1.1e-4,-5.2e-4 -1.1e-4,-0.001 0,-0.002 -0.17,-1.82 -3.95,-1.37969 -4.8,-0.47969 -0.21512,1.34074 0.15052,2.09561 0.56719,2.79844 0.10406,0.17568 0.21029,0.34756 0.31249,0.525 0.10249,0.17778 0.20036,0.35997 0.28438,0.55625 0.0836,0.19539 0.15422,0.40414 0.20313,0.63438 1e-4,4.8e-4 -1.1e-4,0.001 0,0.002 0.0245,0.11542 0.0436,0.2352 0.0563,0.36249 0.0127,0.1273 0.0184,0.26032 0.0172,0.40157 -2e-5,5.8e-4 2e-5,9.9e-4 0,0.002 -0.001,0.0252 -0.0103,0.0416 -0.0125,0.0656 -0.0381,0.41573 -0.23768,0.6695 -0.47188,0.88906 -0.0826,0.0774 -0.16843,0.15284 -0.25156,0.22969 -0.0829,0.0766 -0.16324,0.15539 -0.23437,0.24375 -2.7e-4,3.4e-4 2.7e-4,0.001 0,0.002 -0.14211,0.17718 -0.24983,0.39034 -0.27031,0.68906 -0.0104,0.14965 0.002,0.32156 0.0406,0.52032 0.35,0.17624 0.67674,0.2562 0.97969,0.2578 z m -13.08281,-10.90936 c 0.16316,0.008 0.32952,4.6e-4 0.49687,-0.0188 0.50211,-0.0576 1.01158,-0.23198 1.46407,-0.49844 0.30164,-0.17764 0.57824,-0.39601 0.80937,-0.64844 0.23113,-0.25241 0.41723,-0.53876 0.53907,-0.85156 0.12182,-0.31279 0.17936,-0.65218 0.15312,-1.01093 0.62125,0.28875 1.48677,0.34004 1.975,-0.0469 0.0702,-0.0555 0.13317,-0.11963 0.18593,-0.19375 -0.0118,-0.10573 -0.0338,-0.20944 -0.0625,-0.30937 -1.4e-4,-4.9e-4 1.3e-4,-0.001 0,-0.002 -0.0577,-0.20025 -0.1484,-0.3878 -0.26407,-0.56095 -2.5e-4,-3.7e-4 2.6e-4,-0.001 0,-0.002 -0.40594,-0.60688 -1.12844,-1.03225 -1.88906,-1.16718 -0.21695,-0.0384 -0.43803,-0.0534 -0.65469,-0.0422 -0.4343,0.0226 -0.85594,0.15062 -1.21094,0.40313 0.0458,0.945 -0.0835,1.71609 -0.375,2.325 -0.0971,0.20296 -0.21256,0.38718 -0.34531,0.55468 -0.58132,0.0739 -1.08953,-0.0611 -1.54218,-0.14062 -0.0486,-0.009 -0.10285,-0.0166 -0.15,-0.0234 -0.34537,-0.0503 -0.6528,-0.0483 -0.92188,0.13906 -0.093,0.0648 -0.18151,0.15137 -0.26563,0.26563 0.0283,0.16081 0.0761,0.29967 0.125,0.43749 0.0138,0.0389 0.0207,0.0863 0.0359,0.12344 1.8e-4,4.5e-4 -1.8e-4,0.001 0,0.002 0.0693,0.1682 0.15394,0.31744 0.25157,0.45 2.3e-4,3.2e-4 -2.3e-4,0.001 0,0.002 0.0979,0.13282 0.20973,0.24807 0.33125,0.34687 0.12156,0.0988 0.25346,0.18028 0.39375,0.24688 0.28049,0.1332 0.59398,0.20514 0.92031,0.22032 z m 10.18281,-2.06876 c 0.18431,-0.12131 0.35035,-0.25864 0.5,-0.41093 0.14999,-0.15247 0.28291,-0.31821 0.4,-0.49688 0.23374,-0.35668 0.40323,-0.76047 0.51719,-1.19219 0.11396,-0.43172 0.17196,-0.89176 0.18125,-1.35937 0.009,-0.46762 -0.0291,-0.94344 -0.10938,-1.40782 -0.2007,-1.16093 -0.65783,-2.24993 -1.25313,-2.96249 -0.11905,-0.14248 -0.24425,-0.26984 -0.37343,-0.37969 -0.12943,-0.11021 -0.2623,-0.20246 -0.4,-0.275 -0.13741,-0.0724 -0.27813,-0.12469 -0.42188,-0.15469 -0.27625,0.1475 -0.48993,0.3081 -0.65,0.47969 -0.0804,0.0862 -0.14678,0.17453 -0.20156,0.26562 -0.0544,0.0902 -0.0965,0.18231 -0.12812,0.27656 -1.7e-4,4.9e-4 1.6e-4,0.001 0,0.002 -0.0317,0.0947 -0.053,0.19106 -0.0641,0.28906 -0.0222,0.19606 -0.006,0.39695 0.0391,0.60156 0.20405,0.92076 0.99444,1.89719 1.48438,2.64532 0.0125,0.17249 -7e-5,0.36028 -0.0281,0.5578 -0.0841,0.5921 -0.30635,1.27068 -0.40313,1.875 -9e-5,5.5e-4 9e-5,10e-4 0,0.002 -0.12887,0.80625 -0.0346,1.48031 0.91094,1.64531 z M 29.389476,108.10181 c -5.31638,0.0389 -11.7105,-1.50419 -15.0875,-1.95469 -0.074,-1.654 -0.14944,-3.3085 -0.22344,-4.9625 5.346,-0.061 11.86731,3.40144 16.320314,1.07344 -0.699,-3.179002 -3.120874,-4.472632 -5.246874,-6.090632 -0.582,1.909 -1.193,3.80069 -1.775,5.729692 -2.681,-0.144 -4.78769,-0.91631 -7.50469,-1.02031 1.658,-6.280002 3.81756,-12.083312 5.97656,-17.895312 2.718,0.339 5.44282,0.66931 7.53282,1.69531 -0.806,1.345 -1.24813,3.03212 -1.82813,4.60312 3.351002,2.9 9.585127,5.80969 10.453127,11.279692 0.9375,5.881 -3.30081,7.50331 -8.617187,7.54219 z m 142.664054,-2.58906 c 0.70875,-0.10125 1.29149,-0.32821 1.75626,-0.67344 0.15488,-0.11505 0.29624,-0.24313 0.425,-0.38438 0.12905,-0.14148 0.24517,-0.29521 0.34843,-0.4625 0.20609,-0.33391 0.36109,-0.71922 0.46719,-1.15312 0.0531,-0.21696 0.0947,-0.44625 0.12343,-0.6875 -0.38125,-0.15875 -0.7065,-0.37381 -0.99062,-0.62969 -0.14207,-0.12789 -0.27464,-0.26476 -0.39843,-0.41093 -2.5e-4,-2.9e-4 2.4e-4,-10e-4 0,-0.002 -0.1235,-0.14591 -0.23916,-0.29925 -0.34844,-0.45938 -0.43832,-0.64227 -0.77731,-1.382732 -1.14688,-2.093742 -0.18475,-0.35529 -0.3766,-0.70211 -0.59219,-1.02657 -2.5e-4,-3.7e-4 2.5e-4,-0.001 0,-0.002 -0.21531,-0.32415 -0.45481,-0.62448 -0.73281,-0.88594 -0.27856,-0.26198 -0.5952,-0.48458 -0.96875,-0.65156 -4.3e-4,-1.9e-4 -0.001,1.9e-4 -0.002,0 -0.18622,-0.0831 -0.38733,-0.15267 -0.60313,-0.20625 -0.21629,-0.0537 -0.44844,-0.0925 -0.69844,-0.1125 8e-5,4.8e-4 -8e-5,10e-4 0,0.002 0.18752,1.10592 0.48992,2.38641 0.875,3.69687 0.25696,0.873922 0.55087,1.762042 0.87344,2.620322 0.32229,0.85793 0.6737,1.68662 1.04376,2.44375 2e-4,4.3e-4 -2.2e-4,0.001 0,0.002 0.18513,0.37873 0.375,0.73906 0.56874,1.07657 z m 5.51875,-2.4 c 0.21875,-0.13 0.44037,-0.23376 0.66251,-0.31563 0.44376,-0.16355 0.89339,-0.24124 1.34218,-0.27657 1.12377,-0.0884 2.24547,0.0914 3.27656,-0.12812 0.15313,-0.0319 0.29758,-0.0708 0.43594,-0.11562 4.6e-4,-1.5e-4 0.001,1.4e-4 0.002,0 1.79752,-0.58378 2.41353,-2.21574 3.55313,-3.592192 0.17537,-0.21182 0.36394,-0.4175 0.57031,-0.6125 -5.3e-4,-8e-5 -0.001,8e-5 -0.002,0 -0.53968,-0.0799 -1.05786,-0.1366 -1.56719,-0.17344 -1.01913,-0.0737 -2.00306,-0.0652 -3.04688,0.0109 -4.9e-4,4e-5 -0.001,-3e-5 -0.002,0 -0.5217,0.0381 -1.05902,0.0926 -1.62344,0.1625 -5.3e-4,7e-5 -10e-4,-7e-5 -0.002,0 -0.11375,0.24625 -0.24357,0.47609 -0.38593,0.69375 -0.42709,0.65299 -0.9622,1.19834 -1.48438,1.756252 -0.34813,0.37194 -0.69047,0.74895 -0.99062,1.16875 -0.30016,0.4198 -0.55907,0.88212 -0.73907,1.42188 z M 86.13322,84.392428 c 0.39625,-0.18375 0.78039,-0.38024 1.15625,-0.58437 1.12758,-0.61222 2.185,-1.29366 3.30625,-1.91252 0.7475,-0.41249 1.5225,-0.79718 2.36563,-1.11405 4.5e-4,-1.8e-4 0.001,1.7e-4 0.002,0 0.42114,-0.15823 0.85901,-0.30068 1.31875,-0.42031 4.9e-4,-1.4e-4 0.001,1.2e-4 0.002,0 0.4598,-0.1196 0.94178,-0.21789 1.45,-0.28907 -0.3625,-0.55 -0.95407,-1.00188 -1.68906,-1.35313 -0.32185,-0.1538 -0.67583,-0.28377 -1.04532,-0.39844 -2.16145,-0.67076 -5.01027,-0.67064 -7.10468,0.0719 -4.6e-4,1.6e-4 -10e-4,-1.6e-4 -0.002,0 0.10876,0.225 0.19301,0.46451 0.25625,0.71407 0.12649,0.49911 0.17133,1.03929 0.17344,1.58593 0.004,1.09268 -0.16314,2.21301 -0.19531,3.09064 -2e-5,5.6e-4 2e-5,10e-4 0,0.002 -0.008,0.21946 -0.008,0.42293 0.006,0.60781 z m -40.018747,-4.53594 c -2.097,-0.772 -4.61525,-1.10257 -6.85625,-1.72657 -1.678,-2.975 -2.87287,-6.480061 -4.49687,-9.514061 -1.363003,2.358 -2.500003,4.922061 -3.500003,7.614061 -2.487004,-0.67 -5.324184,-0.95631 -7.542184,-1.92031 3.869,-7.565999 7.068872,-15.751687 11.871867,-22.454687 2.301,0.716 4.75613,1.272568 6.87813,2.176568 -1.371,2.199 -2.77925,4.381432 -3.75625,6.948432 1.429,3.1 2.47137,6.602 4.25937,9.3 2.209,-4.911 4.52594,-9.703872 7.51094,-13.896872 2.352,0.582 4.42675,1.467 6.86875,1.95 -3.671,6.946 -7.59731,13.675184 -10.57031,21.267179 -0.282,0.022 -0.29719,0.30626 -0.66719,0.25626 z m 52.453117,-7.55469 c 0.39448,-0.001 0.81157,-0.0486 1.24532,-0.15 -0.008,-0.197501 0.001,-0.377269 0.025,-0.543749 7e-5,-4.8e-4 -7e-5,-0.0011 0,-0.0016 0.0944,-0.66504 0.4194,-1.099336 0.84062,-1.437504 5.8e-4,-4.64e-4 9.9e-4,-0.0011 0.002,-0.0016 0.3158,-0.253192 0.68627,-0.452552 1.05312,-0.654688 -0.0369,-0.118064 -0.0827,-0.227936 -0.1375,-0.328128 -0.0549,-0.100536 -0.11911,-0.191024 -0.19062,-0.275 -0.9971,-1.172432 -3.53688,-0.802496 -5.67188,-0.837496 -0.1125,0.140624 -0.20868,0.282256 -0.28906,0.425 -0.16076,0.28548 -0.2585,0.57356 -0.3,0.856248 -0.0415,0.282688 -0.0264,0.560112 0.0391,0.825 0.0982,0.397328 0.30985,0.7662 0.61406,1.081248 0.60844,0.630096 1.5869,1.045209 2.77031,1.042189 z m 4.62813,-0.293749 c 0.47843,0.05406 1.18875,-0.177192 1.80469,-0.365624 0.30797,-0.09422 0.5925,-0.17688 0.8125,-0.209376 -6e-5,-5.52e-4 5e-5,-10e-4 0,-0.0016 -0.12703,-1.266536 0.22276,-2.058048 0.79375,-2.626568 0.19041,-0.189584 0.40562,-0.353432 0.63593,-0.50312 0.46063,-0.299376 0.98204,-0.537656 1.48907,-0.790624 0.25351,-0.126488 0.50381,-0.256824 0.74062,-0.4 0.23682,-0.143088 0.45969,-0.299504 0.66094,-0.478128 0.055,-0.415 0.0331,-0.750936 -0.0219,-1.054688 -0.055,-0.303624 -0.1422,-0.575624 -0.21719,-0.865624 -5.3e-4,-1.28e-4 -0.001,1.28e-4 -0.002,0 -0.5,-0.125 -0.96328,-0.182752 -1.39218,-0.181248 -0.42891,0.0015 -0.82219,0.0621 -1.18282,0.175 -0.54093,0.169336 -1.00634,0.455368 -1.40156,0.832808 -0.26348,0.251624 -0.4962,0.543528 -0.69844,0.868752 -2.3e-4,3.84e-4 2.4e-4,0.0012 0,0.0016 -0.10111,0.162608 -0.19492,0.332768 -0.28124,0.510936 -0.0865,0.1786 -0.16548,0.36392 -0.23751,0.556256 -0.0717,0.191392 -0.13604,0.389064 -0.19374,0.592184 -1.4e-4,4.8e-4 1.3e-4,0.0011 0,0.0016 -0.0578,0.203632 -0.10905,0.411472 -0.15313,0.625 -0.13225,0.640584 -0.20375,1.321568 -0.21875,2.017192 -0.195,0.405 -0.50766,0.692344 -0.95156,0.84844 -0.14797,0.05202 -0.31156,0.08843 -0.48907,0.110936 2.8e-4,7.04e-4 10e-4,8.56e-4 0.002,0.0016 0.0206,0.05244 0.0474,0.09684 0.0797,0.135936 0.097,0.117456 0.24247,0.178168 0.42188,0.19844 z m 21.3375,-3.215624 c 0.0275,-0.527504 -0.0551,-0.944848 -0.22656,-1.27344 -0.0857,-0.164328 -0.19279,-0.30564 -0.32031,-0.428128 -0.6376,-0.6124 -1.76563,-0.735936 -3.05313,-0.698432 0.096,0.153384 0.19943,0.30116 0.30781,0.442184 2.4e-4,3.2e-4 -2.4e-4,0.0012 0,0.0016 0.76071,0.989304 1.83094,1.667504 3.29219,1.956256 z M 61.77385,51.128361 c -2.426997,-0.578 -4.558127,-1.48056 -6.878127,-2.17656 0.634,-2.025 2.98819,-4.341816 3.99219,-6.732816 -2.639,-0.662 -5.035,-1.591808 -7.35,-2.607808 -1.647,2.098 -3.07919,4.39468 -4.44219,6.75468 -2.301,-0.706 -4.50356,-1.54112 -6.87656,-2.17812 1.509,-3.693 4.60087,-7.408688 7.39687,-11.404688 3.398,-4.852 6.64294,-10.573064 11.83594,-13.189064 0.076,-0.003 0.15,-0.0079 0.224997,-0.01094 0.951,1.878 1.75894,3.915184 2.96094,5.517184 -3.326997,2.871 -5.711997,6.595936 -8.124997,10.310944 2.5,0.734992 4.85644,1.625624 7.123437,2.615624 2.98,-3.053 5.09638,-6.87588 7.90938,-10.07188 2.104,0.931 4.28887,1.77388 6.44687,2.64688 -4.28,6.389 -9.88475,13.44856 -14.21875,20.52656 z"
       id="path4308"
       inkscape:connector-curvature="0"
       inkscape:export-xdpi="150.02951"
       inkscape:export-ydpi="150.02951" /></g></svg>